<svg xmlns="http://www.w3.org/2000/svg" viewBox="0 0 192 192">
  <defs>
    <linearGradient id="goldGrad" x1="0" y1="0" x2="1" y2="1">
      <stop offset="0%" stop-color="#E8D9A0"/>
      <stop offset="50%" stop-color="#C9A96E"/>
      <stop offset="100%" stop-color="#8F7A4A"/>
    </linearGradient>
    <linearGradient id="porcelain" x1="0" y1="0" x2="0" y2="1">
      <stop offset="0%" stop-color="#FBF6EB"/>
      <stop offset="100%" stop-color="#EDE4D0"/>
    </linearGradient>
    <linearGradient id="water" x1="0" y1="0" x2="0" y2="1">
      <stop offset="0%" stop-color="#B9D4DE"/>
      <stop offset="100%" stop-color="#8FB4CC"/>
    </linearGradient>
  </defs>
  <circle cx="96" cy="96" r="90" fill="url(#porcelain)" stroke="url(#goldGrad)" stroke-width="3"/>
  <circle cx="96" cy="96" r="78" fill="none" stroke="url(#goldGrad)" stroke-width="1.5"/>
  <path d="M 20,108 L 172,108 A 78,78 0 0 1 20,96 Z" fill="url(#water)"/>
  <line x1="20" y1="108" x2="172" y2="108" stroke="url(#goldGrad)" stroke-width="1.5"/>
  <path d="M 50,108 Q 70,70 96,108 Z" fill="url(#water)" stroke="url(#goldGrad)" stroke-width="2"/>
  <path d="M 96,108 Q 122,68 148,108 Z" fill="url(#water)" stroke="url(#goldGrad)" stroke-width="2"/>
  <g transform="translate(96,135)">
    <path d="M 0,0 Q -22,-15 -36,-3 Q -34,15 -4,10 Z" fill="url(#porcelain)" stroke="url(#goldGrad)" stroke-width="2"/>
    <path d="M 0,0 Q 22,-15 36,-3 Q 34,15 4,10 Z" fill="url(#porcelain)" stroke="url(#goldGrad)" stroke-width="2"/>
    <line x1="-40" y1="10" x2="-14" y2="10" stroke="url(#goldGrad)" stroke-width="1.5"/>
    <line x1="-34" y1="15" x2="-20" y2="15" stroke="url(#goldGrad)" stroke-width="1.5"/>
    <line x1="14" y1="10" x2="40" y2="10" stroke="url(#goldGrad)" stroke-width="1.5"/>
    <line x1="20" y1="15" x2="34" y2="15" stroke="url(#goldGrad)" stroke-width="1.5"/>
  </g>
</svg>
